<?xml version="1.0" encoding="utf-8"?>
<!-- Generator: Adobe Illustrator 16.0.0, SVG Export Plug-In . SVG Version: 6.00 Build 0)  -->
<!DOCTYPE svg PUBLIC "-//W3C//DTD SVG 1.0//EN" "http://www.w3.org/TR/2001/REC-SVG-20010904/DTD/svg10.dtd">
<svg version="1.0" id="Capa_1" xmlns="http://www.w3.org/2000/svg" xmlns:xlink="http://www.w3.org/1999/xlink" x="0px" y="0px"
	 width="33.844px" height="54.983px" viewBox="0 0 33.844 54.983" enable-background="new 0 0 33.844 54.983" xml:space="preserve">
<rect x="3.833" y="42.403" fill="#FFFFFF" width="0.374" height="2.962"/>
<path fill="#FFFFFF" d="M5.021,42.403H5.41l1.07,1.859L6.8,44.877h0.018c-0.018-0.299-0.045-0.633-0.045-0.943v-1.531H7.13v2.962
	H6.742L5.667,43.5l-0.32-0.61H5.329c0.022,0.3,0.049,0.615,0.049,0.927v1.549H5.021V42.403z"/>
<path fill="#FFFFFF" d="M7.729,44.981l0.225-0.262c0.213,0.221,0.511,0.37,0.818,0.37c0.388,0,0.619-0.194,0.619-0.483
	c0-0.303-0.213-0.397-0.493-0.523l-0.424-0.186c-0.28-0.116-0.6-0.33-0.6-0.764c0-0.45,0.392-0.785,0.93-0.785
	c0.352,0,0.663,0.149,0.876,0.365l-0.204,0.245c-0.18-0.172-0.397-0.28-0.672-0.28c-0.33,0-0.551,0.166-0.551,0.433
	c0,0.284,0.257,0.394,0.492,0.493l0.42,0.181c0.343,0.148,0.61,0.352,0.61,0.79c0,0.47-0.384,0.844-1.008,0.844
	C8.352,45.418,7.986,45.248,7.729,44.981"/>
<polygon fill="#FFFFFF" points="10.883,42.718 9.989,42.718 9.989,42.403 12.156,42.403 12.156,42.718 11.262,42.718 11.262,45.365 
	10.883,45.365 "/>
<rect x="12.691" y="42.403" fill="#FFFFFF" width="0.375" height="2.962"/>
<polygon fill="#FFFFFF" points="14.493,42.718 13.6,42.718 13.6,42.403 15.767,42.403 15.767,42.718 14.873,42.718 14.873,45.365 
	14.493,45.365 "/>
<path fill="#FFFFFF" d="M16.288,44.141v-1.739h0.375v1.748c0,0.714,0.303,0.939,0.69,0.939c0.393,0,0.7-0.226,0.7-0.939v-1.748h0.36
	v1.739c0,0.953-0.455,1.277-1.061,1.277S16.288,45.094,16.288,44.141"/>
<polygon fill="#FFFFFF" points="19.831,42.718 18.938,42.718 18.938,42.403 21.104,42.403 21.104,42.718 20.21,42.718 20.21,45.365 
	19.831,45.365 "/>
<path fill="#FFFFFF" d="M21.36,43.87c0-0.948,0.52-1.521,1.263-1.521c0.746,0,1.27,0.578,1.27,1.521c0,0.953-0.523,1.549-1.27,1.549
	C21.88,45.418,21.36,44.823,21.36,43.87 M23.501,43.87c0-0.736-0.349-1.192-0.878-1.192c-0.526,0-0.875,0.456-0.875,1.192
	c0,0.741,0.349,1.219,0.875,1.219C23.152,45.088,23.501,44.611,23.501,43.87"/>
<path fill="#FFFFFF" d="M25.437,42.402h0.741c0.912,0,1.399,0.528,1.399,1.468c0,0.943-0.487,1.495-1.383,1.495h-0.758V42.402z
	 M26.149,45.057c0.692,0,1.039-0.437,1.039-1.188c0-0.744-0.347-1.159-1.039-1.159h-0.338v2.347H26.149z"/>
<polygon fill="#FFFFFF" points="28.216,42.403 29.923,42.403 29.923,42.718 28.591,42.718 28.591,43.649 29.715,43.649 
	29.715,43.969 28.591,43.969 28.591,45.043 29.968,45.043 29.968,45.365 28.216,45.365 "/>
<rect y="46.797" fill="#FFFFFF" width="0.375" height="2.962"/>
<path fill="#FFFFFF" d="M1.188,46.797h0.388l1.07,1.859l0.321,0.615h0.018c-0.018-0.299-0.045-0.633-0.045-0.944v-1.53h0.357v2.962
	H2.909l-1.075-1.865l-0.32-0.61H1.496c0.022,0.3,0.049,0.615,0.049,0.927v1.549H1.188V46.797z"/>
<path fill="#FFFFFF" d="M3.706,46.797h0.402l0.474,1.598c0.108,0.353,0.176,0.633,0.289,0.981h0.018
	c0.108-0.349,0.181-0.629,0.285-0.981l0.473-1.598h0.384l-0.939,2.962H4.654L3.706,46.797z"/>
<polygon fill="#FFFFFF" points="6.44,46.797 8.146,46.797 8.146,47.113 6.815,47.113 6.815,48.043 7.939,48.043 7.939,48.364 
	6.815,48.364 6.815,49.438 8.192,49.438 8.192,49.759 6.44,49.759 "/>
<path fill="#FFFFFF" d="M8.605,49.375l0.225-0.262c0.213,0.221,0.511,0.37,0.818,0.37c0.388,0,0.619-0.194,0.619-0.483
	c0-0.303-0.213-0.397-0.493-0.523l-0.424-0.186c-0.28-0.117-0.601-0.33-0.601-0.764c0-0.45,0.393-0.785,0.931-0.785
	c0.352,0,0.663,0.149,0.876,0.365l-0.204,0.245c-0.18-0.172-0.397-0.28-0.672-0.28c-0.33,0-0.551,0.166-0.551,0.433
	c0,0.284,0.257,0.394,0.492,0.493l0.42,0.18c0.343,0.149,0.61,0.353,0.61,0.791c0,0.47-0.384,0.844-1.008,0.844
	C9.229,49.813,8.862,49.642,8.605,49.375"/>
<polygon fill="#FFFFFF" points="11.759,47.113 10.865,47.113 10.865,46.797 13.032,46.797 13.032,47.113 12.138,47.113 
	12.138,49.759 11.759,49.759 "/>
<rect x="13.568" y="46.797" fill="#FFFFFF" width="0.375" height="2.962"/>
<path fill="#FFFFFF" d="M14.584,48.279c0-0.954,0.573-1.535,1.359-1.535c0.411,0,0.682,0.184,0.854,0.365l-0.207,0.243
	c-0.149-0.153-0.34-0.279-0.637-0.279c-0.596,0-0.98,0.46-0.98,1.195c0,0.746,0.352,1.216,0.985,1.216
	c0.211,0,0.415-0.067,0.532-0.177v-0.771h-0.627v-0.312h0.97v1.247c-0.188,0.198-0.514,0.344-0.912,0.344
	C15.139,49.814,14.584,49.245,14.584,48.279"/>
<path fill="#FFFFFF" d="M18.153,46.797h0.425l1.002,2.962h-0.4l-0.281-0.903H17.82l-0.285,0.903h-0.384L18.153,46.797z
	 M17.914,48.553h0.891l-0.141-0.451c-0.107-0.33-0.203-0.655-0.298-0.998h-0.019c-0.09,0.343-0.185,0.668-0.293,0.998L17.914,48.553
	z"/>
<path fill="#FFFFFF" d="M19.768,48.279c0-0.954,0.561-1.535,1.314-1.535c0.36,0,0.641,0.171,0.812,0.365l-0.203,0.243
	c-0.157-0.167-0.353-0.279-0.604-0.279c-0.561,0-0.93,0.46-0.93,1.195c0,0.746,0.355,1.216,0.916,1.216
	c0.283,0,0.496-0.126,0.686-0.334l0.208,0.234c-0.235,0.271-0.524,0.43-0.907,0.43C20.318,49.814,19.768,49.245,19.768,48.279"/>
<rect x="22.521" y="46.797" fill="#FFFFFF" width="0.375" height="2.962"/>
<path fill="#FFFFFF" d="M23.537,48.264c0-0.948,0.52-1.521,1.264-1.521c0.746,0,1.269,0.578,1.269,1.521
	c0,0.953-0.522,1.549-1.269,1.549C24.057,49.813,23.537,49.217,23.537,48.264 M25.678,48.264c0-0.736-0.349-1.192-0.877-1.192
	c-0.527,0-0.875,0.456-0.875,1.192c0,0.741,0.348,1.22,0.875,1.22C25.329,49.484,25.678,49.005,25.678,48.264"/>
<path fill="#FFFFFF" d="M26.71,46.797h0.388l1.07,1.859l0.321,0.615h0.018c-0.018-0.299-0.045-0.633-0.045-0.944v-1.53h0.357v2.962
	h-0.39l-1.074-1.865l-0.32-0.61h-0.018c0.021,0.3,0.049,0.615,0.049,0.927v1.549H26.71V46.797z"/>
<polygon fill="#FFFFFF" points="29.634,46.797 31.341,46.797 31.341,47.113 30.009,47.113 30.009,48.043 31.133,48.043 
	31.133,48.364 30.009,48.364 30.009,49.438 31.386,49.438 31.386,49.759 29.634,49.759 "/>
<path fill="#FFFFFF" d="M31.799,49.375l0.226-0.262c0.213,0.221,0.511,0.37,0.817,0.37c0.389,0,0.619-0.194,0.619-0.483
	c0-0.303-0.212-0.397-0.493-0.523l-0.424-0.186c-0.28-0.117-0.6-0.33-0.6-0.764c0-0.45,0.393-0.785,0.929-0.785
	c0.353,0,0.665,0.149,0.877,0.365l-0.204,0.245c-0.181-0.172-0.396-0.28-0.673-0.28c-0.329,0-0.55,0.166-0.55,0.433
	c0,0.284,0.257,0.394,0.492,0.493l0.42,0.18c0.343,0.149,0.608,0.353,0.608,0.791c0,0.47-0.383,0.844-1.007,0.844
	C32.422,49.813,32.056,49.642,31.799,49.375"/>
<path fill="#FFFFFF" d="M5.075,54.463l0.464-0.558c0.26,0.221,0.591,0.376,0.889,0.376c0.338,0,0.503-0.133,0.503-0.349
	c0-0.227-0.204-0.298-0.519-0.431l-0.47-0.199c-0.369-0.148-0.723-0.457-0.723-0.982c0-0.597,0.53-1.072,1.281-1.072
	c0.415,0,0.851,0.165,1.16,0.476l-0.414,0.514c-0.238-0.182-0.458-0.287-0.746-0.287c-0.282,0-0.458,0.121-0.458,0.325
	c0,0.221,0.238,0.299,0.547,0.426l0.464,0.188c0.436,0.177,0.712,0.47,0.712,0.978c0,0.597-0.497,1.116-1.359,1.116
	C5.937,54.983,5.44,54.806,5.075,54.463"/>
<path fill="#FFFFFF" d="M8.207,53.099c0-1.177,0.663-1.851,1.635-1.851c0.972,0,1.635,0.68,1.635,1.851
	c0,1.177-0.663,1.884-1.635,1.884C8.87,54.983,8.207,54.276,8.207,53.099 M10.643,53.099c0-0.719-0.309-1.148-0.801-1.148
	c-0.491,0-0.801,0.43-0.801,1.148c0,0.724,0.31,1.183,0.801,1.183C10.334,54.282,10.643,53.823,10.643,53.099"/>
<path fill="#FFFFFF" d="M11.986,53.138c0-1.193,0.79-1.89,1.701-1.89c0.464,0,0.84,0.222,1.083,0.47l-0.431,0.519
	c-0.182-0.165-0.376-0.286-0.635-0.286c-0.492,0-0.884,0.437-0.884,1.159c0,0.74,0.342,1.171,0.872,1.171
	c0.293,0,0.525-0.148,0.702-0.337l0.431,0.509c-0.298,0.349-0.696,0.53-1.165,0.53C12.748,54.983,11.986,54.347,11.986,53.138"/>
<rect x="15.372" y="51.315" fill="#FFFFFF" width="0.812" height="3.602"/>
<path fill="#FFFFFF" d="M17.703,51.314h0.979l1.126,3.603h-0.862l-0.22-0.856h-1.1l-0.222,0.856h-0.828L17.703,51.314z
	 M17.792,53.425h0.768l-0.083-0.331c-0.099-0.36-0.199-0.785-0.292-1.161h-0.023c-0.088,0.381-0.182,0.801-0.28,1.161L17.792,53.425
	z"/>
<polygon fill="#FFFFFF" points="20.2,51.315 21.013,51.315 21.013,54.232 22.438,54.232 22.438,54.917 20.2,54.917 "/>
<polygon fill="#FFFFFF" points="23.062,51.315 25.315,51.315 25.315,52 23.874,52 23.874,52.723 25.101,52.723 25.101,53.403 
	23.874,53.403 23.874,54.232 25.371,54.232 25.371,54.917 23.062,54.917 "/>
<path fill="#FFFFFF" d="M25.857,54.463l0.463-0.558c0.261,0.221,0.592,0.376,0.891,0.376c0.337,0,0.502-0.133,0.502-0.349
	c0-0.227-0.204-0.298-0.52-0.431l-0.469-0.199c-0.37-0.148-0.723-0.457-0.723-0.982c0-0.597,0.528-1.072,1.28-1.072
	c0.414,0,0.851,0.165,1.159,0.476l-0.414,0.514c-0.236-0.182-0.458-0.287-0.745-0.287c-0.281,0-0.459,0.121-0.459,0.325
	c0,0.221,0.238,0.299,0.547,0.426l0.466,0.188c0.436,0.177,0.711,0.47,0.711,0.978c0,0.597-0.497,1.116-1.358,1.116
	C26.719,54.983,26.222,54.806,25.857,54.463"/>
<path fill="#FFFFFF" d="M18.779,19.401l-4.665,4.665c-1.55,1.55-3.594,2.326-5.636,2.326c-2.041,0-4.085-0.776-5.636-2.326
	c-1.551-1.552-2.326-3.594-2.326-5.636s0.776-4.085,2.326-5.636L15.186,0.451c0.601-0.601,1.576-0.601,2.178,0s0.602,1.576,0,2.178
	L5.021,14.971c-0.95,0.95-1.425,2.204-1.425,3.459c0,1.254,0.475,2.508,1.425,3.458c0.95,0.95,2.204,1.425,3.458,1.425
	c1.255,0,2.509-0.475,3.459-1.425l7.771-7.771c1.552-1.551,3.595-2.327,5.637-2.327s4.085,0.776,5.636,2.327
	c1.557,1.557,2.351,3.596,2.351,5.644c0,2.023-0.773,4.05-2.351,5.628L18.578,37.791c-0.601,0.602-1.576,0.602-2.178,0
	c-0.601-0.601-0.601-1.576,0-2.178l12.402-12.402c0.973-0.972,1.449-2.215,1.449-3.45c0-1.255-0.489-2.507-1.449-3.466
	c-0.95-0.95-2.204-1.425-3.458-1.425c-1.255,0-2.51,0.475-3.459,1.425L18.779,19.401z"/>
<path fill-rule="evenodd" clip-rule="evenodd" fill="#FFFFFF" d="M7.386,16.807l9.458-9.458c0.712-0.712,1.877-0.712,2.589,0
	c0.713,0.712,0.713,1.877,0,2.589l-9.458,9.458c-0.712,0.712-1.877,0.712-2.589,0C6.674,18.684,6.674,17.52,7.386,16.807"/>
<path fill-rule="evenodd" clip-rule="evenodd" fill="#FFFFFF" d="M14.485,28.135l9.458-9.458c0.712-0.712,1.877-0.712,2.589,0
	c0.712,0.712,0.712,1.877,0,2.589l-9.458,9.458c-0.712,0.712-1.877,0.712-2.589,0S13.773,28.847,14.485,28.135"/>
</svg>
