<svg xmlns="http://www.w3.org/2000/svg" viewBox="0 0 117.11 49.03"><defs><style>.cls-1,.cls-2{fill:#fff;}.cls-2{fill-rule:evenodd;}</style></defs><g id="Capa_2" data-name="Capa 2"><g id="Capa_1-2" data-name="Capa 1"><path class="cls-1" d="M23.42,24.87l-6,6A10.22,10.22,0,0,1,3,16.4L18.81.58A2,2,0,0,1,21.6,3.37L5.77,19.19a6.27,6.27,0,0,0,4.44,10.7,6.22,6.22,0,0,0,4.43-1.83l10-10A10.22,10.22,0,1,1,39.06,32.55l-15.9,15.9a2,2,0,0,1-2.79-2.79l15.9-15.9a6.27,6.27,0,0,0-8.87-8.87Z"/><path class="cls-2" d="M8.81,21.55,20.93,9.42a2.35,2.35,0,0,1,3.32,3.32L12.13,24.87a2.35,2.35,0,0,1-3.32-3.32"/><path class="cls-2" d="M17.91,36.07,30,24a2.35,2.35,0,0,1,3.32,3.32L21.23,39.39a2.35,2.35,0,1,1-3.32-3.32"/><path class="cls-1" d="M47.07,13.52h.66v5.2h-.66Z"/><path class="cls-1" d="M49.16,13.52h.68l1.88,3.27.57,1.08h0c0-.53-.08-1.11-.08-1.66V13.52h.62v5.2h-.68l-1.89-3.27-.56-1.07h0c0,.52.09,1.07.09,1.62v2.72h-.63Z"/><path class="cls-1" d="M53.91,18.05l.39-.46a2.05,2.05,0,0,0,1.44.65c.68,0,1.09-.34,1.09-.85s-.38-.7-.87-.92l-.74-.33a1.45,1.45,0,0,1-1.06-1.34,1.48,1.48,0,0,1,1.64-1.38,2.14,2.14,0,0,1,1.54.65l-.36.42A1.67,1.67,0,0,0,55.8,14c-.58,0-1,.3-1,.76s.45.69.86.87l.74.32a1.43,1.43,0,0,1,1.07,1.38,1.57,1.57,0,0,1-1.77,1.49A2.5,2.5,0,0,1,53.91,18.05Z"/><path class="cls-1" d="M59.45,14.07H57.87v-.55h3.81v.55H60.11v4.65h-.66Z"/><path class="cls-1" d="M62.62,13.52h.66v5.2h-.66Z"/><path class="cls-1" d="M65.78,14.07H64.21v-.55H68v.55H66.45v4.65h-.67Z"/><path class="cls-1" d="M68.93,16.57V13.52h.66v3.07c0,1.25.53,1.65,1.21,1.65S72,17.84,72,16.59V13.52h.64v3.05c0,1.68-.8,2.25-1.87,2.25S68.93,18.25,68.93,16.57Z"/><path class="cls-1" d="M75.15,14.07H73.58v-.55h3.81v.55H75.82v4.65h-.67Z"/><path class="cls-1" d="M77.83,16.1c0-1.67.91-2.68,2.22-2.68s2.23,1,2.23,2.68-.92,2.72-2.23,2.72S77.83,17.77,77.83,16.1Zm3.76,0c0-1.3-.61-2.1-1.54-2.1s-1.54.8-1.54,2.1.61,2.14,1.54,2.14S81.59,17.4,81.59,16.1Z"/><path class="cls-1" d="M47.07,21.23h1.3a2.27,2.27,0,0,1,2.46,2.58c0,1.66-.85,2.62-2.42,2.62H47.07Zm1.26,4.66c1.21,0,1.82-.77,1.82-2.08s-.61-2-1.82-2h-.6v4.12Z"/><path class="cls-1" d="M52,21.23h3v.55H52.61v1.64h2V24h-2v1.89H55v.56H52Z"/><path class="cls-1" d="M57.72,21.23h.65v5.2h-.65Z"/><path class="cls-1" d="M59.8,21.23h.68l1.89,3.27.56,1.08h0c0-.53-.08-1.11-.08-1.66V21.23h.63v5.2h-.68l-1.89-3.27-.57-1.07h0c0,.52.09,1.07.09,1.62v2.72H59.8Z"/><path class="cls-1" d="M64.22,21.23h.7L65.76,24c.19.62.31,1.11.51,1.72h0c.19-.61.32-1.1.5-1.72l.83-2.81h.67l-1.65,5.2h-.77Z"/><path class="cls-1" d="M69,21.23h3v.55H69.68v1.64h2V24h-2v1.89H72.1v.56H69Z"/><path class="cls-1" d="M72.82,25.76l.39-.46a2,2,0,0,0,1.44.65c.68,0,1.09-.34,1.09-.85s-.38-.7-.87-.92l-.75-.32a1.4,1.4,0,0,1,.58-2.73,2.16,2.16,0,0,1,1.54.65l-.35.42a1.68,1.68,0,0,0-1.19-.49c-.58,0-1,.3-1,.76s.45.69.86.87l.74.32A1.45,1.45,0,0,1,76.41,25a1.57,1.57,0,0,1-1.77,1.49A2.5,2.5,0,0,1,72.82,25.76Z"/><path class="cls-1" d="M78.35,21.78H76.78v-.55h3.81v.55H79v4.65h-.67Z"/><path class="cls-1" d="M81.52,21.23h.66v5.2h-.66Z"/><path class="cls-1" d="M83.31,23.83a2.42,2.42,0,0,1,2.39-2.7,2,2,0,0,1,1.5.65l-.37.42a1.46,1.46,0,0,0-1.12-.49c-1,0-1.72.81-1.72,2.11S84.61,26,85.72,26a1.45,1.45,0,0,0,.94-.31V24.28H85.55v-.54h1.71v2.19a2.19,2.19,0,0,1-1.6.6C84.28,26.53,83.31,25.53,83.31,23.83Z"/><path class="cls-1" d="M89.57,21.23h.75l1.76,5.2h-.71l-.49-1.58H89l-.5,1.58h-.68Zm-.42,3.09h1.57l-.25-.8c-.19-.58-.36-1.15-.52-1.75h0c-.16.6-.33,1.17-.52,1.75Z"/><path class="cls-1" d="M92.4,23.83c0-1.67,1-2.7,2.31-2.7a1.87,1.87,0,0,1,1.43.65l-.36.42a1.42,1.42,0,0,0-1.06-.49c-1,0-1.63.81-1.63,2.11S93.71,26,94.7,26a1.54,1.54,0,0,0,1.2-.59l.37.42a2,2,0,0,1-1.6.75C93.37,26.53,92.4,25.53,92.4,23.83Z"/><path class="cls-1" d="M97.23,21.23h.66v5.2h-.66Z"/><path class="cls-1" d="M99,23.81c0-1.67.91-2.68,2.22-2.68s2.23,1,2.23,2.68-.92,2.72-2.23,2.72S99,25.48,99,23.81Zm3.76,0c0-1.3-.61-2.1-1.54-2.1s-1.54.8-1.54,2.1.61,2.14,1.54,2.14S102.78,25.11,102.78,23.81Z"/><path class="cls-1" d="M104.58,21.23h.69l1.88,3.27.56,1.08h0c0-.53-.08-1.11-.08-1.66V21.23h.63v5.2h-.68l-1.89-3.27-.56-1.07h0c0,.52.09,1.07.09,1.62v2.72h-.63Z"/><path class="cls-1" d="M109.72,21.23h3v.55h-2.34v1.64h2V24h-2v1.89h2.42v.56h-3.07Z"/><path class="cls-1" d="M113.51,25.76l.4-.46a2,2,0,0,0,1.44.65c.68,0,1.08-.34,1.08-.85s-.37-.7-.86-.92l-.75-.32a1.4,1.4,0,0,1,.58-2.73,2.16,2.16,0,0,1,1.54.65l-.35.42a1.68,1.68,0,0,0-1.19-.49c-.58,0-1,.3-1,.76s.45.69.86.87l.74.32A1.45,1.45,0,0,1,117.11,25a1.58,1.58,0,0,1-1.77,1.49A2.54,2.54,0,0,1,113.51,25.76Z"/><path class="cls-1" d="M46.7,34.69l.81-1a2.57,2.57,0,0,0,1.56.66c.59,0,.88-.23.88-.61s-.36-.52-.91-.75l-.82-.35A1.85,1.85,0,0,1,47,30.93a2,2,0,0,1,2.25-1.88,2.9,2.9,0,0,1,2,.84l-.72.9a2.07,2.07,0,0,0-1.31-.51c-.5,0-.81.22-.81.57s.42.53,1,.75l.82.33a1.75,1.75,0,0,1,1.25,1.72c0,1-.88,2-2.39,2A3.46,3.46,0,0,1,46.7,34.69Z"/><path class="cls-1" d="M52.19,32.3c0-2.07,1.17-3.25,2.87-3.25s2.87,1.19,2.87,3.25-1.16,3.3-2.87,3.3S52.19,34.36,52.19,32.3Zm4.28,0c0-1.26-.55-2-1.41-2s-1.4.76-1.4,2,.54,2.07,1.4,2.07S56.47,33.57,56.47,32.3Z"/><path class="cls-1" d="M58.82,32.37a3,3,0,0,1,3-3.32,2.68,2.68,0,0,1,1.9.83l-.76.91a1.62,1.62,0,0,0-1.11-.51c-.86,0-1.55.77-1.55,2s.6,2,1.53,2a1.69,1.69,0,0,0,1.23-.59l.75.89a2.59,2.59,0,0,1-2,.93A2.91,2.91,0,0,1,58.82,32.37Z"/><path class="cls-1" d="M64.77,29.17h1.42v6.32H64.77Z"/><path class="cls-1" d="M68.86,29.17h1.71l2,6.32H71L70.65,34H68.72l-.39,1.51H66.88Zm.15,3.7h1.35l-.15-.58c-.17-.63-.35-1.38-.51-2h0c-.15.67-.32,1.41-.49,2Z"/><path class="cls-1" d="M73.24,29.17h1.42v5.12h2.5v1.2H73.24Z"/><path class="cls-1" d="M78.26,29.17h3.95v1.2H79.69v1.27h2.15v1.19H79.69v1.46h2.62v1.2h-4Z"/><path class="cls-1" d="M83.17,34.69l.81-1a2.57,2.57,0,0,0,1.56.66c.59,0,.88-.23.88-.61s-.36-.52-.91-.75l-.82-.35a1.85,1.85,0,0,1-1.27-1.73,2,2,0,0,1,2.25-1.88,2.9,2.9,0,0,1,2,.84l-.73.9a2,2,0,0,0-1.3-.51c-.5,0-.81.22-.81.57s.42.53,1,.75l.81.33a1.74,1.74,0,0,1,1.25,1.72c0,1-.87,2-2.38,2A3.46,3.46,0,0,1,83.17,34.69Z"/></g></g></svg>